<?xml version="1.0" encoding="utf-8"?>
<!-- Generator: Adobe Illustrator 24.2.3, SVG Export Plug-In . SVG Version: 6.00 Build 0)  -->
<svg version="1.1" id="Layer_1" xmlns="http://www.w3.org/2000/svg" xmlns:xlink="http://www.w3.org/1999/xlink" x="0px" y="0px"
	 viewBox="0 0 640 512" style="enable-background:new 0 0 640 512;" xml:space="preserve">
<style type="text/css">
	.st0{fill:#E2E3ED;}
</style>
<path class="st0" d="M192,160h32V32h-32c-35.4,0-64,28.7-64,64S156.6,160,192,160z M0,416c0,35.4,28.6,64,64,64h32V352H64
	C28.7,352,0,380.6,0,416z M337.5,288c-34.9,0-76.2,13.1-104.7,32c-24.8,16.4-44.5,32-104.7,32v128l57.5,16c26.2,7.3,53,13.1,80.3,15
	c32.7,2.3,65.6,0.7,97.6-6.2C472.9,481.3,512,429.2,512,384C512,320,427.8,288,337.5,288L337.5,288z M491.4,7.2
	c-32-6.9-64.9-8.5-97.6-6.2c-27.3,1.9-54.1,7.8-80.3,15L256,32v128c60.2,0,79.9,15.6,104.7,32c28.6,18.9,69.8,32,104.7,32
	c90.4,0,174.5-32,174.5-96C640,82.8,600.9,30.7,491.4,7.2L491.4,7.2z"/>
</svg>
